<?xml version="1.0" standalone="no"?>
<!DOCTYPE svg PUBLIC "-//W3C//DTD SVG 20010904//EN"
 "http://www.w3.org/TR/2001/REC-SVG-20010904/DTD/svg10.dtd">
<svg version="1.0" xmlns="http://www.w3.org/2000/svg"
 width="700.000000pt" height="700.000000pt" viewBox="0 0 700.000000 700.000000"
 preserveAspectRatio="xMidYMid meet">
<metadata>
Created by potrace 1.14, written by Peter Selinger 2001-2017
</metadata>
<g transform="translate(0.000000,700.000000) scale(0.100000,-0.100000)"
fill="#000000" stroke="none">
<path d="M3279 6126 c-2 -2 -40 -6 -84 -10 -75 -6 -97 -9 -170 -21 -16 -3 -59
-10 -95 -15 -154 -25 -425 -101 -590 -167 -395 -156 -761 -398 -1041 -688
-230 -239 -423 -536 -538 -829 -56 -142 -110 -323 -127 -426 -2 -14 -7 -36
-10 -48 -2 -13 -7 -43 -10 -65 -3 -23 -9 -67 -14 -97 -9 -58 -6 -491 4 -550 3
-19 8 -50 11 -69 15 -100 52 -249 87 -360 51 -158 56 -172 151 -364 l79 -158
-48 -142 c-26 -78 -65 -194 -86 -257 -22 -63 -40 -119 -42 -125 -5 -20 -48
-151 -56 -170 -5 -11 -33 -96 -63 -190 -58 -179 -63 -220 -37 -302 45 -138
195 -220 344 -190 28 6 109 23 151 31 11 3 72 16 135 30 63 14 126 27 140 30
14 2 78 16 142 30 64 14 127 27 140 30 13 2 68 14 123 26 55 12 109 24 120 25
11 2 86 18 168 35 l147 32 108 -42 c179 -70 229 -87 377 -125 281 -73 500
-100 800 -100 155 0 370 11 398 20 7 2 35 6 62 9 187 20 577 123 741 196 27
12 63 27 79 35 612 272 1076 693 1364 1236 105 198 205 480 235 659 3 19 8 46
11 60 5 26 9 56 24 175 9 69 7 462 -2 500 -3 11 -8 42 -11 70 -6 43 -26 151
-40 210 -77 344 -270 725 -521 1029 -47 57 -240 254 -305 312 -156 137 -405
302 -616 407 -223 112 -568 231 -757 262 -18 3 -54 10 -82 15 -76 15 -96 17
-171 25 -38 4 -78 10 -89 12 -23 6 -530 14 -536 9z m486 -590 c78 -10 118 -16
145 -21 14 -3 41 -7 60 -9 19 -3 82 -16 140 -30 738 -175 1329 -651 1589
-1281 34 -80 77 -216 87 -269 3 -16 7 -33 9 -36 3 -4 7 -25 10 -46 4 -22 8
-46 10 -54 9 -36 19 -184 19 -290 0 -363 -103 -699 -311 -1013 -87 -131 -144
-200 -277 -333 -257 -257 -599 -461 -956 -569 -3 -1 -12 -4 -20 -8 -23 -9
-211 -56 -250 -62 -19 -3 -42 -8 -50 -10 -8 -2 -42 -7 -75 -11 -33 -3 -69 -8
-80 -10 -101 -20 -428 -23 -590 -4 -107 12 -123 14 -175 25 -14 2 -41 7 -60
10 -65 11 -227 55 -316 86 -49 16 -93 32 -99 33 -15 4 -59 23 -113 47 -162 74
-198 80 -333 51 -52 -12 -105 -23 -119 -26 -14 -2 -101 -21 -195 -41 -93 -20
-181 -39 -195 -41 -14 -3 -85 -18 -159 -35 -74 -16 -136 -27 -139 -24 -2 2 46
156 108 342 62 188 113 358 115 383 3 70 -14 117 -85 235 -127 209 -204 398
-249 610 -31 144 -32 153 -35 335 -6 250 31 462 119 690 243 632 839 1127
1575 1309 112 28 143 35 225 46 22 4 51 8 65 11 14 2 61 7 105 10 44 4 81 8
83 9 6 5 367 -3 417 -9z"/>
</g>
</svg>
